<svg width="100" height="29" viewBox="0 0 100 29" fill="none" xmlns="http://www.w3.org/2000/svg">
<g clip-path="url(#clip0_9803_3881)">
<path d="M15.177 9.60165L9.94239 18.6474H6.51852L3.95062 11.4156C3.78601 10.9621 3.65432 10.8189 3.19342 10.6279C2.17914 10.274 1.10566 10.0173 0 9.86419L0.0658436 9.60165H5.56379C6.30694 9.60408 6.93632 9.99952 7.04527 10.5325L8.39506 15.7594L11.7531 9.60165H15.177ZM28.5761 15.6878C28.5761 13.3011 24.0329 13.1579 24.0658 12.1077C24.0658 11.7736 24.4938 11.4394 25.4486 11.344C26.5439 11.2698 27.6467 11.4099 28.642 11.7497L29.2016 9.84032C28.235 9.57123 27.2083 9.43368 26.1728 9.43457C22.9794 9.43457 20.7407 10.6757 20.7078 12.418C20.6749 13.7307 22.321 14.4467 23.5391 14.8763C24.7572 15.306 25.2181 15.6162 25.2181 15.9981C25.2181 16.5948 24.1975 16.8812 23.2757 16.8812C22.1173 16.9044 20.9708 16.7069 19.9506 16.3084L19.358 18.2894C20.498 18.6211 21.7183 18.7834 22.9465 18.7667C26.3374 18.7906 28.5432 17.5734 28.5761 15.6878ZM37.0041 18.6474H40L37.3992 9.60165H34.6337C34.0268 9.59638 33.4777 9.86177 33.251 10.2699L28.3786 18.6474H31.7695L32.428 17.287H36.5761L37.0041 18.6474ZM33.3827 15.4492L35.0947 12.06L36.0823 15.4492H33.3827ZM19.786 9.60165L17.1193 18.6474H13.893L16.5597 9.60165H19.786Z" fill="#1A1F71"/>
</g>
<circle cx="66" cy="14.1011" r="14" fill="#CF1928"/>
<circle cx="82" cy="14.1011" r="14" fill="#FFD400" fill-opacity="0.7"/>
<defs>
<clipPath id="clip0_9803_3881">
<rect width="40" height="28" fill="white" transform="translate(0 0.101074)"/>
</clipPath>
</defs>
</svg>
