<svg width="24" height="25" viewBox="0 0 24 25" fill="none" xmlns="http://www.w3.org/2000/svg">
<path d="M12.378 1.7033C12.2633 1.63635 12.1328 1.60107 12 1.60107C11.8672 1.60107 11.7367 1.63635 11.622 1.7033L3 6.7333L12 11.9833L21 6.7333L12.378 1.7033ZM21.75 8.0313L12.75 13.2813V22.2813L21.378 17.2493C21.4912 17.1832 21.5852 17.0886 21.6504 16.9749C21.7157 16.8612 21.75 16.7324 21.75 16.6013V8.0313ZM11.25 22.2813V13.2813L2.25 8.0313V16.6013C2.24996 16.7324 2.28429 16.8612 2.34956 16.9749C2.41483 17.0886 2.50877 17.1832 2.622 17.2493L11.25 22.2823V22.2813Z" fill="#FFB1C8"/>
</svg>
