<svg width="60" height="61" viewBox="0 0 60 61" fill="none" xmlns="http://www.w3.org/2000/svg">
<rect y="0.101074" width="60" height="60" rx="16" fill="#F6F7FC"/>
<path d="M40.7641 15.3481C40.6815 14.9412 40.4607 14.5753 40.1393 14.3126C39.8178 14.0498 39.4153 13.9062 39.0001 13.9062C38.5849 13.9062 38.1825 14.0498 37.861 14.3126C37.5395 14.5753 37.3188 14.9412 37.2361 15.3481L36.8041 17.4937C36.7347 17.8422 36.5636 18.1624 36.3125 18.4138C36.0613 18.6653 35.7414 18.8367 35.3929 18.9067L33.2473 19.3351C32.8385 19.4159 32.4703 19.6361 32.2058 19.9582C31.9412 20.2802 31.7965 20.6841 31.7965 21.1009C31.7965 21.5176 31.9412 21.9215 32.2058 22.2435C32.4703 22.5656 32.8385 22.7858 33.2473 22.8667L35.3929 23.2951C35.7417 23.3646 36.062 23.536 36.3135 23.7875C36.565 24.0389 36.7363 24.3593 36.8059 24.7081L37.2343 26.8537C37.3152 27.2625 37.5354 27.6306 37.8575 27.8952C38.1795 28.1598 38.5833 28.3044 39.0001 28.3044C39.4169 28.3044 39.8208 28.1598 40.1428 27.8952C40.4648 27.6306 40.6851 27.2625 40.7659 26.8537L41.1943 24.7081C41.2639 24.3593 41.4353 24.0389 41.6867 23.7875C41.9382 23.536 42.2586 23.3646 42.6073 23.2951L44.7529 22.8667C45.1618 22.7858 45.5299 22.5656 45.7945 22.2435C46.0591 21.9215 46.2037 21.5176 46.2037 21.1009C46.2037 20.6841 46.0591 20.2802 45.7945 19.9582C45.5299 19.6361 45.1618 19.4159 44.7529 19.3351L42.6073 18.9067C42.2586 18.8371 41.9382 18.6657 41.6867 18.4142C41.4353 18.1628 41.2639 17.8424 41.1943 17.4937L40.7659 15.3481H40.7641ZM24.5083 22.3321C24.3891 21.9732 24.16 21.6611 23.8533 21.4398C23.5467 21.2186 23.1782 21.0996 22.8001 21.0996C22.422 21.0996 22.0535 21.2186 21.7469 21.4398C21.4403 21.6611 21.2111 21.9732 21.0919 22.3321L19.8625 26.0239C19.7742 26.2892 19.6252 26.5304 19.4274 26.7282C19.2297 26.926 18.9885 27.0749 18.7231 27.1633L15.0313 28.3927C14.6725 28.5119 14.3604 28.741 14.1391 29.0476C13.9179 29.3543 13.7988 29.7228 13.7988 30.1009C13.7988 30.479 13.9179 30.8475 14.1391 31.1541C14.3604 31.4607 14.6725 31.6899 15.0313 31.8091L18.7231 33.0403C18.9883 33.1284 19.2294 33.2771 19.4271 33.4746C19.6249 33.672 19.774 33.9128 19.8625 34.1779L21.0919 37.8697C21.2111 38.2285 21.4403 38.5406 21.7469 38.7619C22.0535 38.9831 22.422 39.1022 22.8001 39.1022C23.1782 39.1022 23.5467 38.9831 23.8533 38.7619C24.16 38.5406 24.3891 38.2285 24.5083 37.8697L25.7377 34.1779C25.8261 33.9125 25.975 33.6713 26.1728 33.4735C26.3706 33.2758 26.6117 33.1268 26.8771 33.0385L30.5689 31.8091C30.9277 31.6899 31.2399 31.4607 31.4611 31.1541C31.6824 30.8475 31.8014 30.479 31.8014 30.1009C31.8014 29.7228 31.6824 29.3543 31.4611 29.0476C31.2399 28.741 30.9277 28.5119 30.5689 28.3927L26.8771 27.1633C26.6117 27.0749 26.3706 26.926 26.1728 26.7282C25.975 26.5304 25.8261 26.2892 25.7377 26.0239L24.5101 22.3321H24.5083ZM37.1083 36.7321C36.9891 36.3732 36.76 36.0611 36.4533 35.8398C36.1467 35.6186 35.7782 35.4996 35.4001 35.4996C35.022 35.4996 34.6535 35.6186 34.3469 35.8398C34.0403 36.0611 33.8111 36.3732 33.6919 36.7321L33.3607 37.7239C33.2726 37.989 33.1239 38.2301 32.9264 38.4278C32.729 38.6256 32.4882 38.7747 32.2231 38.8633L31.2313 39.1927C30.8725 39.3119 30.5604 39.541 30.3391 39.8476C30.1179 40.1543 29.9988 40.5228 29.9988 40.9009C29.9988 41.279 30.1179 41.6474 30.3391 41.9541C30.5604 42.2607 30.8725 42.4898 31.2313 42.6091L32.2231 42.9385C32.4885 43.0268 32.7297 43.1758 32.9274 43.3735C33.1252 43.5713 33.2742 43.8125 33.3625 44.0779L33.6919 45.0697C33.8111 45.4285 34.0403 45.7406 34.3469 45.9619C34.6535 46.1831 35.022 46.3022 35.4001 46.3022C35.7782 46.3022 36.1467 46.1831 36.4533 45.9619C36.76 45.7406 36.9891 45.4285 37.1083 45.0697L37.4395 44.0779C37.5277 43.8127 37.6764 43.5716 37.8738 43.3739C38.0713 43.1761 38.3121 43.027 38.5771 42.9385L39.5689 42.6091C39.9277 42.4898 40.2399 42.2607 40.4611 41.9541C40.6824 41.6474 40.8014 41.279 40.8014 40.9009C40.8014 40.5228 40.6824 40.1543 40.4611 39.8476C40.2399 39.541 39.9277 39.3119 39.5689 39.1927L38.5771 38.8615C38.3119 38.7733 38.0709 38.6246 37.8731 38.4272C37.6754 38.2297 37.5263 37.9889 37.4377 37.7239L37.1083 36.7321Z" fill="#F3B984"/>
</svg>
