<svg width="31" height="30" viewBox="0 0 31 30" fill="#CF4FA9" xmlns="http://www.w3.org/2000/svg">
<path d="M2.21764 0.607567C2.02285 0.551078 1.81641 0.548297 1.62017 0.599519C1.42393 0.650742 1.24519 0.754061 1.10286 0.898545C0.960524 1.04303 0.859898 1.2233 0.811626 1.42029C0.763354 1.61727 0.769232 1.82365 0.828638 2.01757L4.47664 13.8751H17.2506C17.549 13.8751 17.8352 13.9936 18.0461 14.2046C18.2571 14.4156 18.3756 14.7017 18.3756 15.0001C18.3756 15.2984 18.2571 15.5846 18.0461 15.7956C17.8352 16.0065 17.549 16.1251 17.2506 16.1251H4.47664L0.828638 27.9826C0.769232 28.1765 0.763354 28.3829 0.811626 28.5798C0.859898 28.7768 0.960524 28.9571 1.10286 29.1016C1.24519 29.2461 1.42393 29.3494 1.62017 29.4006C1.81641 29.4518 2.02285 29.4491 2.21764 29.3926C12.1401 26.507 21.497 21.9485 29.8851 15.9136C30.0301 15.8094 30.1482 15.6722 30.2296 15.5134C30.311 15.3545 30.3535 15.1786 30.3535 15.0001C30.3535 14.8216 30.311 14.6456 30.2296 14.4868C30.1482 14.3279 30.0301 14.1908 29.8851 14.0866C21.4971 8.05154 12.1401 3.49304 2.21764 0.607567Z" fill="#CF4FA9"/>
</svg>
