<svg width="80" height="81" viewBox="0 0 80 81" fill="none" xmlns="http://www.w3.org/2000/svg">
<path fill-rule="evenodd" clip-rule="evenodd" d="M40 72.1011C48.4869 72.1011 56.6263 68.7297 62.6274 62.7285C68.6286 56.7273 72 48.588 72 40.1011C72 31.6141 68.6286 23.4748 62.6274 17.4737C56.6263 11.4725 48.4869 8.10107 40 8.10107C31.5131 8.10107 23.3737 11.4725 17.3726 17.4737C11.3714 23.4748 8 31.6141 8 40.1011C8 48.588 11.3714 56.7273 17.3726 62.7285C23.3737 68.7297 31.5131 72.1011 40 72.1011ZM54.828 34.9291C55.5566 34.1747 55.9598 33.1643 55.9507 32.1155C55.9416 31.0667 55.5209 30.0634 54.7793 29.3218C54.0376 28.5802 53.0344 28.1595 51.9856 28.1504C50.9368 28.1413 49.9264 28.5444 49.172 29.2731L36 42.4451L30.828 37.2731C30.0736 36.5444 29.0632 36.1413 28.0144 36.1504C26.9656 36.1595 25.9624 36.5802 25.2207 37.3218C24.4791 38.0634 24.0584 39.0667 24.0493 40.1155C24.0402 41.1643 24.4434 42.1747 25.172 42.9291L33.172 50.9291C33.9221 51.679 34.9393 52.1002 36 52.1002C37.0607 52.1002 38.0779 51.679 38.828 50.9291L54.828 34.9291Z" fill="#EFC4E2"/>
</svg>
